<svg width="88" height="118" viewBox="0 0 88 118" fill="none" xmlns="http://www.w3.org/2000/svg">
<path d="M57.0281 112.058C54.7661 112.687 47.1883 107.94 43.6821 104.533C41.5709 108.689 34.7697 117 24.4548 117C14.5019 114.304 19.6292 103.672 23.4369 98.6926C19.1693 91.2086 19.9308 86.4502 21.7404 82.9684C22.4282 81.6451 23.8363 80.5221 25.4725 79.371C24.0335 79.9276 22.4104 80.2729 20.6094 80.2729C13.2578 75.7802 16.6508 61.8531 15.1805 60.73C13.7102 59.6068 21.5142 58.3713 27.961 58.3713C29.7706 54.5976 33.5407 50.8088 35.1995 49.3861L35.5388 45.6797C34.3324 44.594 31.3993 41.232 29.3182 36.4698C26.4228 35.9307 25.2466 32.3516 25.0204 30.6294C24.9072 27.26 25.3597 20.9254 28.0741 22.5427C28.3008 14.1396 33.9554 6.50722 41.4201 4.01069C45.7179 1.8767 49.6567 1.53797 54.0875 1.09051C67.4334 -0.257271 77.1602 13.7822 78.2912 20.858C83.3808 22.0935 83.4939 29.0571 81.9104 32.2019C80.327 35.3467 78.2912 34.6728 75.5767 37.0314C72.8623 39.3901 78.2912 46.0167 79.8746 47.5891C81.1413 48.847 80.4024 51.0334 79.8746 51.9694C78.9698 52.6807 77.7031 54.8447 79.8746 57.8098C82.0462 60.7749 85.5297 69.7527 87 73.8709C87 75.2187 85.2582 78.7903 78.2912 82.2946C79.0829 91.9537 71.2789 98.9172 69.8086 102.624C68.3382 106.33 59.8556 111.272 57.0281 112.058Z" fill="white" stroke="#171717" stroke-width="2"/>
<path d="M40 47.9396C42.6792 49.6846 51.2302 51.9397 64 47" stroke="#171717" stroke-width="2"/>
<path d="M5.14269 80.0665C6.69443 83.5097 15.5615 81.4438 15.8941 80.7552C16.2266 80.0665 18 62.2765 18 62.2765L17.6675 61.5879C17.4828 61.1288 15.2512 60.2106 11.3497 60.2106C6.80527 59.4072 3.70178 61.1288 2.37171 61.5879C1.04165 62.047 3.59094 76.6233 5.14269 80.0665Z" fill="#EEDB2B" stroke="#EEDB2B" stroke-width="4"/>
<ellipse cx="9.5" cy="62.5" rx="6.5" ry="1.5" fill="#A56E10"/>
<ellipse cx="50.5" cy="27" rx="20.5" ry="21" fill="#0B0035" fill-opacity="0.76"/>
<path d="M30 35.3208L28.2548 36C28.2548 36 26.2604 35.3208 25.3878 32.717C24.5152 30.1132 25.3878 26.8302 25.3878 25.8113C25.3878 24.7925 26.1357 22.9811 26.759 22.3019C27.3823 21.6226 28.5042 22.3019 28.5042 22.3019L30 35.3208Z" fill="#2A1B63"/>
<path d="M58.4228 76.7335C56.0771 72.8092 64.2311 70.1546 64.7895 70.1546C66.2416 69.5775 68.0288 66.2534 70.7095 67.1537C79.6452 70.1548 78.64 80.4269 78.9751 80.7731C79.3102 81.1194 76.2944 82.9661 68.0288 86.3132C59.7632 89.6603 57.4175 79.8498 58.4228 76.7335Z" fill="#F8F8F9"/>
<path d="M58.4228 76.7335C56.0771 72.8092 64.2311 70.1546 64.7895 70.1546C66.2416 69.5775 68.0288 66.2534 70.7095 67.1537C79.6452 70.1548 78.64 80.4269 78.9751 80.7731C79.3102 81.1194 76.2944 82.9661 68.0288 86.3132C59.7632 89.6603 57.4175 79.8498 58.4228 76.7335ZM58.4228 76.7335C58.8323 75.7717 60.1429 73.802 62.1088 73.6173" stroke="#171717" stroke-width="2"/>
<path d="M66 64L69 67" stroke="#171717" stroke-width="2"/>
<path d="M33 73C33.9127 71.5082 36.1905 68.0197 38 66" stroke="#171717" stroke-width="2"/>
<path d="M49 94L53.507 90.7258C53.2441 88.543 53.0563 83.9742 54.4085 83.1613C55.7606 82.3484 56.6995 80.7151 57 80" stroke="#171717" stroke-width="2"/>
<path d="M43 100.413C44.2222 97.8843 47.0891 93.4625 49.4444 94.0538C52.5556 94.8349 53.2222 92.2687 58.7778 99.0744C60.037 101.789 62.6444 107.375 63 108" stroke="#171717" stroke-width="4"/>
<path d="M34 78C37.4149 80.6904 43.9714 87.7081 42.8787 94.2559C41.7859 100.804 42.4233 101.38 42.8787 100.849" stroke="#171717" stroke-width="2"/>
<path d="M25 99.0845C25.6566 99.1972 34.8484 98.5211 38.8972 99.7606C42.1363 100.752 42.2165 101 41.8518 101" stroke="#171717" stroke-width="4"/>
<ellipse cx="78" cy="27.5" rx="5" ry="7.5" fill="#34256F"/>
<ellipse cx="79.5" cy="27.5" rx="3.5" ry="6.5" fill="#8475C2"/>
<circle cx="56.5" cy="19.5" r="7.5" fill="#8478B6"/>
<ellipse cx="52" cy="27.5" rx="4" ry="3.5" fill="#B5A9E9"/>
<path d="M23.8195 59.0773C22.1165 58.5104 19.815 61.2247 19.0869 61.9118C18.3588 65.5139 22.4038 63.372 23.8195 63.3291C29.6442 65.2617 26.1251 59.8448 23.8195 59.0773Z" fill="#F2F2F2" stroke="#171717" stroke-width="4"/>
<path d="M16 76.9884C16.003 76.9847 16.006 76.9809 16.009 76.977C16.0746 76.69 16.4893 73.7632 16.9041 70.9325C17.2551 68.5375 23.3459 64.5338 21.5377 62.8199C19.7295 61.106 17.6952 62.7056 17.6952 62.1343C17.6952 61.6773 16.5651 60.9536 16 60.6489L16.4521 60.4204C17.9589 60.0014 21.4473 59.5292 23.3459 60.9917C25.7192 62.8199 20.9726 69.2186 19.6164 70.3612C18.5351 71.2723 16.9148 75.8157 16.009 76.977C16.0031 77.0028 16 77.0073 16 76.9884Z" fill="#EEDA2B"/>
<path d="M19.1416 65.2389C16.9997 68.9782 18.2492 75.4032 19.811 77.3693C21.2613 79.558 26.9508 79.7064 29.8514 76.8129C34.5369 73.4742 30.5207 65.9066 27.6202 62.3453C25.6865 61.7518 21.2836 61.4995 19.1416 65.2389Z" fill="#F8F8F9" stroke="#171717" stroke-width="2"/>
<path d="M19.7021 106.046C17.4688 113.205 21.0809 115.881 23.3188 116.35C24.0075 116.976 26.5701 117.477 29.5278 116.234C38.6759 115.016 43.0484 106.475 43.7581 105.382C44.5487 104.164 43.338 102.17 41.0476 100.731C37.5239 98.516 29.6031 98.922 26.8173 99.2911C24.1067 99.2911 22.0512 98.516 19.7021 106.046Z" fill="#E7E7E7"/>
<path d="M23.655 116.405C21.4715 116.147 17.353 113.576 19.7021 106.046C22.0512 98.516 24.1067 99.2911 26.8173 99.2911C29.6031 98.922 37.5239 98.516 41.0476 100.731C43.338 102.17 44.5487 104.164 43.7581 105.382C43.0484 106.475 38.6759 115.016 29.5278 116.234C26.3655 117.563 23.655 116.898 23.2032 116.219" stroke="#171717" stroke-width="2"/>
<path d="M42 101.572L42.6811 100.212V99.645C42.6811 97.718 46.9946 94.6576 46.5405 94.4309C46.0865 94.2042 52.7838 92.9574 56.1892 96.1312C58.9135 98.6702 61.8649 105.728 63 108.94C61.9784 109.62 59.0724 111.184 55.6216 112C46.7222 109.914 42.8324 104.179 42 101.572Z" fill="#E7E7E7" stroke="#171717" stroke-width="2"/>
<path d="M58.7143 112.841C57.5714 113.538 54.4286 111.775 53 110.807C53.4762 110.226 55.2857 109.063 58.7143 109.063C63 109.063 64.7143 101.217 71 95.4058C77.2857 89.5941 70.1429 86.1071 76.4286 80.2954C81.4571 75.6461 80.4286 71.1904 79.2857 69.5438C76.2381 65.2819 70.5429 55.712 72.1429 51.5276C73.7429 47.3432 70.5238 41.2603 68.7143 38.7419C65 36.6109 58.6571 30.9542 63 25.375C67.3429 19.7958 63.9524 8.32738 62.4286 3C64.4286 4.16234 70.6571 6.83571 73.8571 10.5552C77.8571 15.2045 76.7143 19.2727 78.7143 21.0162C83.8571 24.2127 82.1429 29.1526 82.7143 30.6055C83.2857 32.0584 81 35.2549 76.4286 36.7078C71.8571 38.1607 79.5714 47.4594 80.4286 48.3311C81.1143 49.0285 80.5238 50.7527 80.1429 51.5276C79.381 52.3993 78.1429 54.6659 79.2857 56.7581C81.8 59.5477 85.4762 69.7375 87 74.4837C85 79.4237 80.7143 80.0048 78.4286 82.6201C80.1429 92.7905 71.5714 99.1834 71 102.38C70.4286 105.576 60.1429 111.969 58.7143 112.841Z" fill="#171717" fill-opacity="0.18"/>
<path d="M57 69C57 75.6274 56.2253 81 49.4444 81C42.6636 81 40 76.3879 40 69.7605C40 63.1331 42.6636 57 49.4444 57C56.2253 57 57 62.3726 57 69Z" fill="#171717" fill-opacity="0.35"/>
<path d="M7.28516 73.7549V70.7344H7.84766V73.7549C7.84766 74.0361 7.79004 74.2734 7.6748 74.4668C7.55957 74.6602 7.40039 74.8076 7.19727 74.9092C6.99609 75.0088 6.76465 75.0586 6.50293 75.0586C6.24121 75.0586 6.00879 75.0137 5.80566 74.9238C5.60254 74.834 5.44336 74.6973 5.32812 74.5137C5.21289 74.3301 5.15527 74.0986 5.15527 73.8193H5.7207C5.7207 73.999 5.75391 74.1465 5.82031 74.2617C5.88672 74.377 5.97852 74.4619 6.0957 74.5166C6.21484 74.5713 6.35059 74.5986 6.50293 74.5986C6.65137 74.5986 6.78418 74.5674 6.90137 74.5049C7.02051 74.4404 7.11426 74.3457 7.18262 74.2207C7.25098 74.0938 7.28516 73.9385 7.28516 73.7549ZM11.0791 73.9219C11.0791 73.8223 11.0635 73.7344 11.0322 73.6582C11.0029 73.5801 10.9502 73.5098 10.874 73.4473C10.7998 73.3848 10.6963 73.3252 10.5635 73.2686C10.4326 73.2119 10.2666 73.1543 10.0654 73.0957C9.85449 73.0332 9.66406 72.9639 9.49414 72.8877C9.32422 72.8096 9.17871 72.7207 9.05762 72.6211C8.93652 72.5215 8.84375 72.4072 8.7793 72.2783C8.71484 72.1494 8.68262 72.002 8.68262 71.8359C8.68262 71.6699 8.7168 71.5166 8.78516 71.376C8.85352 71.2354 8.95117 71.1133 9.07812 71.0098C9.20703 70.9043 9.36035 70.8223 9.53809 70.7637C9.71582 70.7051 9.91406 70.6758 10.1328 70.6758C10.4531 70.6758 10.7246 70.7373 10.9473 70.8604C11.1719 70.9814 11.3428 71.1406 11.46 71.3379C11.5771 71.5332 11.6357 71.7422 11.6357 71.9648H11.0732C11.0732 71.8047 11.0391 71.6631 10.9707 71.54C10.9023 71.415 10.7988 71.3174 10.6602 71.2471C10.5215 71.1748 10.3457 71.1387 10.1328 71.1387C9.93164 71.1387 9.76562 71.1689 9.63477 71.2295C9.50391 71.29 9.40625 71.3721 9.3418 71.4756C9.2793 71.5791 9.24805 71.6973 9.24805 71.8301C9.24805 71.9199 9.2666 72.002 9.30371 72.0762C9.34277 72.1484 9.40234 72.2158 9.48242 72.2783C9.56445 72.3408 9.66797 72.3984 9.79297 72.4512C9.91992 72.5039 10.0713 72.5547 10.2471 72.6035C10.4893 72.6719 10.6982 72.748 10.874 72.832C11.0498 72.916 11.1943 73.0107 11.3076 73.1162C11.4229 73.2197 11.5078 73.3379 11.5625 73.4707C11.6191 73.6016 11.6475 73.75 11.6475 73.916C11.6475 74.0898 11.6123 74.2471 11.542 74.3877C11.4717 74.5283 11.3711 74.6484 11.2402 74.748C11.1094 74.8477 10.9521 74.9248 10.7686 74.9795C10.5869 75.0322 10.3838 75.0586 10.1592 75.0586C9.96191 75.0586 9.76758 75.0312 9.57617 74.9766C9.38672 74.9219 9.21387 74.8398 9.05762 74.7305C8.90332 74.6211 8.7793 74.4863 8.68555 74.3262C8.59375 74.1641 8.54785 73.9766 8.54785 73.7637H9.11035C9.11035 73.9102 9.13867 74.0361 9.19531 74.1416C9.25195 74.2451 9.3291 74.3311 9.42676 74.3994C9.52637 74.4678 9.63867 74.5186 9.76367 74.5518C9.89062 74.583 10.0225 74.5986 10.1592 74.5986C10.3564 74.5986 10.5234 74.5713 10.6602 74.5166C10.7969 74.4619 10.9004 74.3838 10.9707 74.2822C11.043 74.1807 11.0791 74.0605 11.0791 73.9219Z" fill="black"/>
</svg>
