<svg width="50" height="68" viewBox="0 0 50 68" fill="none" xmlns="http://www.w3.org/2000/svg">
<path d="M32.1602 63.835C30.8893 64.1909 26.6317 61.505 24.6617 59.5774C23.4755 61.9286 19.6543 66.6311 13.8589 66.6311C8.26678 65.106 11.1475 59.0902 13.2869 56.273C10.8892 52.0387 11.317 49.3465 12.3337 47.3765C12.7202 46.6278 13.5113 45.9924 14.4306 45.3412C13.6221 45.6561 12.7102 45.8514 11.6983 45.8514C7.56777 43.3095 9.47416 35.4298 8.64806 34.7943C7.82195 34.1589 12.2067 33.4599 15.8288 33.4599C16.8455 31.3247 18.9638 29.1811 19.8958 28.3761L20.0864 26.2791C19.4086 25.6648 17.7606 23.7627 16.5914 21.0683C14.9646 20.7633 14.3037 18.7383 14.1766 17.7639C14.113 15.8575 14.3672 12.2735 15.8923 13.1886C16.0197 8.43422 19.1968 4.11591 23.3908 2.7034C25.8056 1.49602 28.0186 1.30437 30.508 1.05121C38.0065 0.288655 43.4715 8.23195 44.1069 12.2354C46.9665 12.9344 47.0301 16.8743 46.1404 18.6536C45.2508 20.4329 44.1069 20.0516 42.5818 21.3861C41.0567 22.7205 44.1069 26.4698 44.9966 27.3594C45.7083 28.0711 45.2931 29.3082 44.9966 29.8377C44.4882 30.2402 43.7765 31.4645 44.9966 33.1421C46.2167 34.8198 48.1739 39.8992 49 42.2293C49 42.9918 48.0214 45.0126 44.1069 46.9953C44.5518 52.4602 40.1671 56.4001 39.341 58.4972C38.5149 60.5942 33.7489 63.3902 32.1602 63.835Z" fill="white"/>
<path d="M24.6617 59.5774C26.6317 61.505 30.8893 64.1909 32.1602 63.835C33.7489 63.3902 38.5149 60.5942 39.341 58.4971C40.1671 56.4001 44.5518 52.4602 44.1069 46.9953C48.0214 45.0126 49 42.9918 49 42.2293C48.1739 39.8992 46.2167 34.8198 44.9966 33.1421C43.7765 31.4645 44.4882 30.2402 44.9966 29.8377C45.2931 29.3082 45.7083 28.0711 44.9966 27.3594C44.1069 26.4698 41.0567 22.7205 42.5818 21.3861C44.1069 20.0516 45.2508 20.4329 46.1404 18.6536C47.0301 16.8743 46.9665 12.9344 44.1069 12.2354C43.4715 8.23195 38.0065 0.288655 30.508 1.05121C28.0186 1.30437 25.8056 1.49602 23.3908 2.7034C19.1968 4.11591 16.0197 8.43422 15.8923 13.1886C14.3672 12.2735 14.113 15.8575 14.1766 17.7639C14.3037 18.7383 14.9646 20.7633 16.5914 21.0683C17.7606 23.7627 19.4086 25.6648 20.0864 26.2791L19.8958 28.3761C18.9638 29.1811 16.8455 31.3247 15.8288 33.4599C12.2067 33.4599 7.82195 34.1589 8.64806 34.7943C9.47416 35.4298 7.56777 43.3095 11.6983 45.8514C15.6127 45.8514 18.0317 42.9283 18.7519 41.4667C17.1689 44.2212 13.3505 45.4066 12.3337 47.3765C11.317 49.3465 10.8892 52.0387 13.2869 56.273C11.1475 59.0902 8.26678 65.106 13.8589 66.6311C19.6543 66.6311 23.4755 61.9286 24.6617 59.5774Z" stroke="#171717"/>
<path d="M22.5 39.5C22 38.3333 21.3 35.1 22.5 31.5" stroke="#171717"/>
<path d="M23.5 43C24.3333 44 27 45.8 31 45" stroke="#171717"/>
<path d="M22.7554 27.7407C24.2593 28.5668 29.0592 29.6343 36.2272 27.2958" stroke="#171717"/>
<path d="M2.80177 45.5972C3.69142 47.5036 8.77513 46.3598 8.96577 45.9785C9.15641 45.5972 10.1732 35.7475 10.1732 35.7475L9.98251 35.3662C9.8766 35.112 8.5972 34.6037 6.36037 34.6037C3.75497 34.1588 1.97567 35.112 1.21311 35.3662C0.450555 35.6204 1.91212 43.6908 2.80177 45.5972Z" fill="#EEDB2B" stroke="#EEDB2B"/>
<ellipse cx="5.47066" cy="35.811" rx="3.62214" ry="0.953196" fill="#A56E10"/>
<ellipse cx="28.3474" cy="15.6669" rx="11.629" ry="11.9467" fill="#0B0035" fill-opacity="0.76"/>
<path d="M16.7185 20.4964L15.8288 20.8777C15.8288 20.8777 14.8121 20.4964 14.3673 19.0348C13.9224 17.5733 14.3673 15.7304 14.3673 15.1585C14.3673 14.5866 14.7485 13.5698 15.0663 13.1886C15.384 12.8073 15.9559 13.1886 15.9559 13.1886L16.7185 20.4964Z" fill="#2A1B63"/>
<path d="M32.6685 43.9449C31.334 41.7843 35.9729 40.3228 36.2907 40.3228C37.1168 40.005 38.1335 38.1749 39.6586 38.6706C44.7423 40.3229 44.1704 45.9784 44.361 46.169C44.5517 46.3597 42.8359 47.3764 38.1335 49.2193C33.4311 51.0621 32.0966 45.6607 32.6685 43.9449Z" fill="#F8F8F9"/>
<path d="M32.6685 43.9449C31.334 41.7843 35.9729 40.3228 36.2907 40.3228C37.1168 40.005 38.1335 38.1749 39.6586 38.6706C44.7423 40.3229 44.1704 45.9784 44.361 46.169C44.5517 46.3597 42.8359 47.3764 38.1335 49.2193C33.4311 51.0621 32.0966 45.6607 32.6685 43.9449ZM32.6685 43.9449C32.9015 43.4154 33.6471 42.3309 34.7655 42.2292" stroke="#171717"/>
<path d="M37.4346 36.383L38.8326 38.5436" stroke="#171717"/>
<path d="M18.6249 41.7844C19.1121 40.9583 20.3279 39.0265 21.2938 37.9081" stroke="#171717"/>
<path d="M27.6484 53.8583L30.1903 52.0154C30.042 50.7869 29.9361 48.2153 30.6987 47.7578C31.4612 47.3003 31.9908 46.381 32.1602 45.9785" stroke="#171717"/>
<path d="M24.0262 57.4803C24.7253 56.0399 26.3649 53.5214 27.7119 53.8582C29.4912 54.3031 29.8725 52.8414 33.0498 56.7178C33.77 58.2641 35.2612 61.4457 35.4646 61.8015" stroke="#171717"/>
<path d="M19.0061 44.644C20.9125 46.148 24.5728 50.0709 23.9627 53.7312C23.3527 57.3914 23.7085 57.7134 23.9627 57.4169" stroke="#171717"/>
<path d="M13.7317 56.273C14.113 56.3365 19.4509 55.9553 21.8021 56.6543C23.6831 57.2135 23.7297 57.3533 23.5178 57.3533" stroke="#171717"/>
<ellipse cx="43.9163" cy="15.9846" rx="2.79604" ry="4.00342" fill="#34256F"/>
<ellipse cx="44.8059" cy="16.0481" rx="1.90639" ry="3.68569" fill="#8475C2"/>
<ellipse cx="31.9696" cy="11.5363" rx="4.32116" ry="4.13052" fill="#8478B6"/>
<ellipse cx="29.4912" cy="15.9846" rx="2.22412" ry="2.09703" fill="#B5A9E9"/>
<path d="M13.3505 34.0953C12.4587 33.8157 11.2535 35.1545 10.8722 35.4934C10.4909 37.27 12.6091 36.2136 13.3505 36.1924C16.4007 37.1456 14.5579 34.4739 13.3505 34.0953Z" fill="#F2F2F2" stroke="#171717"/>
<path d="M9.15637 43.945C9.15805 43.9429 9.15973 43.9408 9.16142 43.9387C9.1983 43.7791 9.43152 42.1513 9.66474 40.5771C9.86207 39.2451 13.2869 37.0185 12.2701 36.0653C11.2534 35.1121 10.1096 36.0017 10.1096 35.684C10.1096 35.4298 9.4741 35.0274 9.15637 34.8579L9.41056 34.7308C10.2578 34.4978 12.2193 34.2352 13.2869 35.0485C14.6214 36.0653 11.9524 39.6239 11.1899 40.2594C10.5818 40.766 9.67078 43.2928 9.16142 43.9387C9.1581 43.953 9.15637 43.9555 9.15637 43.945Z" fill="#EEDA2B"/>
<path d="M10.4909 37.082C9.27078 39.2172 9.9825 42.8859 10.8722 44.0086C11.6983 45.2583 14.9391 45.343 16.5913 43.6908C19.2603 41.7844 16.9726 37.4633 15.3204 35.4298C14.2189 35.0909 11.711 34.9468 10.4909 37.082Z" fill="#F8F8F9" stroke="#171717"/>
<path d="M4.52344 42.1699V40.1562H4.89844V42.1699C4.89844 42.3574 4.86003 42.5156 4.7832 42.6445C4.70638 42.7734 4.60026 42.8717 4.46484 42.9395C4.33073 43.0059 4.17643 43.0391 4.00195 43.0391C3.82747 43.0391 3.67253 43.0091 3.53711 42.9492C3.40169 42.8893 3.29557 42.7982 3.21875 42.6758C3.14193 42.5534 3.10352 42.3991 3.10352 42.2129H3.48047C3.48047 42.3327 3.5026 42.431 3.54688 42.5078C3.59115 42.5846 3.65234 42.6413 3.73047 42.6777C3.8099 42.7142 3.90039 42.7324 4.00195 42.7324C4.10091 42.7324 4.18945 42.7116 4.26758 42.6699C4.34701 42.627 4.40951 42.5638 4.45508 42.4805C4.50065 42.3958 4.52344 42.2923 4.52344 42.1699ZM7.05273 42.2812C7.05273 42.2148 7.04232 42.1562 7.02148 42.1055C7.00195 42.0534 6.9668 42.0065 6.91602 41.9648C6.86654 41.9232 6.79753 41.8835 6.70898 41.8457C6.62174 41.8079 6.51107 41.7695 6.37695 41.7305C6.23633 41.6888 6.10938 41.6426 5.99609 41.5918C5.88281 41.5397 5.78581 41.4805 5.70508 41.4141C5.62435 41.3477 5.5625 41.2715 5.51953 41.1855C5.47656 41.0996 5.45508 41.0013 5.45508 40.8906C5.45508 40.7799 5.47786 40.6777 5.52344 40.584C5.56901 40.4902 5.63411 40.4089 5.71875 40.3398C5.80469 40.2695 5.9069 40.2148 6.02539 40.1758C6.14388 40.1367 6.27604 40.1172 6.42188 40.1172C6.63542 40.1172 6.81641 40.1582 6.96484 40.2402C7.11458 40.321 7.22852 40.4271 7.30664 40.5586C7.38477 40.6888 7.42383 40.8281 7.42383 40.9766H7.04883C7.04883 40.8698 7.02604 40.7754 6.98047 40.6934C6.9349 40.61 6.86589 40.5449 6.77344 40.498C6.68099 40.4499 6.5638 40.4258 6.42188 40.4258C6.28776 40.4258 6.17708 40.446 6.08984 40.4863C6.0026 40.5267 5.9375 40.5814 5.89453 40.6504C5.85286 40.7194 5.83203 40.7982 5.83203 40.8867C5.83203 40.9466 5.8444 41.0013 5.86914 41.0508C5.89518 41.099 5.9349 41.1439 5.98828 41.1855C6.04297 41.2272 6.11198 41.2656 6.19531 41.3008C6.27995 41.3359 6.38086 41.3698 6.49805 41.4023C6.65951 41.4479 6.79883 41.4987 6.91602 41.5547C7.0332 41.6107 7.12956 41.6738 7.20508 41.7441C7.2819 41.8132 7.33854 41.8919 7.375 41.9805C7.41276 42.0677 7.43164 42.1667 7.43164 42.2773C7.43164 42.3932 7.4082 42.498 7.36133 42.5918C7.31445 42.6855 7.2474 42.7656 7.16016 42.832C7.07292 42.8984 6.9681 42.9499 6.8457 42.9863C6.72461 43.0215 6.58919 43.0391 6.43945 43.0391C6.30794 43.0391 6.17839 43.0208 6.05078 42.9844C5.92448 42.9479 5.80924 42.8932 5.70508 42.8203C5.60221 42.7474 5.51953 42.6576 5.45703 42.5508C5.39583 42.4427 5.36523 42.3177 5.36523 42.1758H5.74023C5.74023 42.2734 5.75911 42.3574 5.79688 42.4277C5.83464 42.4967 5.88607 42.554 5.95117 42.5996C6.01758 42.6452 6.09245 42.679 6.17578 42.7012C6.26042 42.722 6.34831 42.7324 6.43945 42.7324C6.57096 42.7324 6.68229 42.7142 6.77344 42.6777C6.86458 42.6413 6.93359 42.5892 6.98047 42.5215C7.02865 42.4538 7.05273 42.3737 7.05273 42.2812Z" fill="black"/>
<path d="M10.9993 60.2765C9.74273 64.3845 11.7751 65.9204 13.0342 66.1893C13.4218 66.5486 14.8636 66.836 16.5278 66.1227C21.6751 65.4237 24.1353 60.5227 24.5347 59.8952C24.9795 59.1962 24.2983 58.0523 23.0096 57.2262C21.0269 55.9553 16.5702 56.1883 15.0027 56.4001C13.4776 56.4001 12.3211 55.9553 10.9993 60.2765Z" fill="#E7E7E7"/>
<path d="M13.2234 66.2212C11.9949 66.0729 9.67753 64.5976 10.9993 60.2765C12.3211 55.9553 13.4776 56.4001 15.0027 56.4001C16.5702 56.1883 21.0269 55.9553 23.0096 57.2262C24.2983 58.0523 24.9795 59.1962 24.5347 59.8952C24.1353 60.5227 21.6751 65.4237 16.5278 66.1227C14.7485 66.8853 13.2234 66.504 12.9692 66.1141" stroke="#171717"/>
<path d="M23.8992 58.0523L24.2804 57.2898V56.972C24.2804 55.8917 26.6952 54.176 26.441 54.0489C26.1868 53.9218 29.9361 53.2228 31.8425 55.0021C33.3676 56.4255 35.0198 60.3824 35.6553 62.1829C35.0833 62.5641 33.4565 63.4411 31.5247 63.8986C26.5427 62.7293 24.3652 59.5139 23.8992 58.0523Z" fill="#E7E7E7" stroke="#171717"/>
<path d="M26.5 52C26.5 52.3333 27.1 53.6 27.5 54" stroke="#171717"/>
</svg>
